<svg xmlns="http://www.w3.org/2000/svg">
	<symbol id="star-empty" width="14" height="14" viewBox="0 0 14 14">
		<path fill-rule="evenodd" clip-rule="evenodd" d="M7.00002 0.125C7.2379 0.125 7.45517 0.260045 7.56046 0.47336L9.34643 4.09154L13.3404 4.67532C13.5758 4.70972 13.7712 4.87473 13.8445 5.10098C13.9179 5.32723 13.8565 5.57552 13.6861 5.74147L10.7966 8.55585L11.4785 12.5318C11.5187 12.7663 11.4223 13.0033 11.2299 13.1432C11.0374 13.283 10.7822 13.3014 10.5716 13.1907L7.00002 11.3124L3.42843 13.1907C3.21785 13.3014 2.96267 13.283 2.77018 13.1432C2.5777 13.0033 2.48129 12.7663 2.52151 12.5318L3.20344 8.55585L0.313935 5.74147C0.143549 5.57552 0.0821284 5.32723 0.155489 5.10098C0.22885 4.87473 0.424275 4.70972 0.659626 4.67532L4.6536 4.09154L6.43958 0.47336C6.54487 0.260045 6.76213 0.125 7.00002 0.125ZM7.00002 2.16203L5.62921 4.93914C5.53825 5.12342 5.36251 5.25121 5.15916 5.28093L2.09278 5.72913L4.3111 7.88978C4.45852 8.03336 4.52581 8.24032 4.49102 8.44315L3.96763 11.4948L6.70911 10.0531C6.89122 9.95731 7.10881 9.95731 7.29093 10.0531L10.0324 11.4948L9.50901 8.44315C9.47422 8.24032 9.54151 8.03336 9.68893 7.88978L11.9073 5.72913L8.84087 5.28093C8.63753 5.25121 8.46179 5.12342 8.37083 4.93914L7.00002 2.16203Z" fill="#F2C94C"/>
	</symbol>
	<symbol id="star-fill" width="14" height="14" viewBox="0 0 10 10">
		<path fill-rule="evenodd" clip-rule="evenodd" d="M5.00002 0.162048L3.62921 2.93915C3.53825 3.12343 3.3625 3.25122 3.15916 3.28094L0.0927734 3.72914L2.3111 5.88979C2.45852 6.03338 2.52581 6.24034 2.49102 6.44317L1.96763 9.49481L4.70911 8.05309C4.89122 7.95732 5.10881 7.95732 5.29092 8.05309L8.0324 9.49481L7.50901 6.44317C7.47422 6.24034 7.54151 6.03338 7.68893 5.88979L9.90726 3.72914L6.84087 3.28094C6.63753 3.25122 6.46179 3.12343 6.37082 2.93915L5.00002 0.162048Z" fill="#F2C94C"/>
	</symbol>
</svg>